<svg xmlns="http://www.w3.org/2000/svg" xmlns:xlink="http://www.w3.org/1999/xlink" width="124" height="123" viewBox="0 0 124 123">
    <defs>
        <path id="a" d="M.27.595h105.736v111.4H.27z"/>
    </defs>
    <g fill="none" fill-rule="evenodd">
        <path fill="#1EA0F2" d="M.005 40.823h123.572L61.334 15.74z"/>
        <path fill="#1EA0F2" d="M0 112.275h123.359V40.822H0z"/>
        <g transform="translate(8.651 .366)">
            <mask id="b" fill="#fff">
                <use xlink:href="#a"/>
            </mask>
            <path fill="#FEFEFE" d="M102.161 111.996H4.115A3.845 3.845 0 0 1 .27 108.15V4.44A3.845 3.845 0 0 1 4.115.595h98.046a3.845 3.845 0 0 1 3.845 3.845V108.15a3.845 3.845 0 0 1-3.845 3.845" mask="url(#b)"/>
        </g>
        <path fill="#EEF3FA" d="M60.828 24.06H24.3a1.923 1.923 0 0 1 0-3.846h36.527a1.923 1.923 0 0 1 0 3.845M99.277 41.602H24.301a1.923 1.923 0 0 1 0-3.845h74.976a1.923 1.923 0 0 1 0 3.845M99.277 51.214H24.301a1.923 1.923 0 0 1 0-3.844h74.976a1.923 1.923 0 0 1 0 3.844M99.277 60.466H24.301a1.923 1.923 0 0 1 0-3.845h74.976a1.923 1.923 0 0 1 0 3.845M99.277 70.68H24.301a1.923 1.923 0 0 1 0-3.845h74.976a1.923 1.923 0 0 1 0 3.845"/>
        <path fill="#0286BF" d="M120.66 119.73a9.552 9.552 0 0 0 2.918-6.899V40.823l-62.485 40.03 59.037 38.49.53.386z"/>
        <path fill="#526F84" d="M120.77 119.621a9.584 9.584 0 0 1-6.804 2.823H9.617c-5.309 0-9.612-4.304-9.612-9.612v-72.01l120.764 78.8z"/>
    </g>
</svg>
